<svg xmlns="http://www.w3.org/2000/svg" viewBox="0 0 506.55 324.83" xmlns:xlink="http://www.w3.org/1999/xlink">
  <g id="Group_33" data-name="Group 33" transform="translate(-227 -187)">
    <path id="Path_511-845" data-name="Path 511" d="M716.064,187H242.87a16.7,16.7,0,0,0-16.68,16.68V254.6a16.7,16.7,0,0,0,16.68,16.68H716.064a16.7,16.7,0,0,0,16.68-16.68V203.68A16.7,16.7,0,0,0,716.064,187Zm14.924,67.6a14.946,14.946,0,0,1-14.924,14.924H242.87A14.946,14.946,0,0,1,227.946,254.6V203.68a14.946,14.946,0,0,1,14.924-14.924H716.064a14.946,14.946,0,0,1,14.924,14.924Z" transform="translate(0.81)" fill="#3f3d56"/>
    <path id="Path_512-846" data-name="Path 512" d="M716.064,391.553H242.87a16.7,16.7,0,0,1-16.68-16.68V323.954a16.7,16.7,0,0,1,16.68-16.68H716.064a16.7,16.7,0,0,1,16.68,16.68v50.919a16.7,16.7,0,0,1-16.68,16.68ZM242.87,309.03a14.941,14.941,0,0,0-14.924,14.924v50.919A14.941,14.941,0,0,0,242.87,389.8H716.064a14.941,14.941,0,0,0,14.925-14.924V323.954a14.941,14.941,0,0,0-14.924-14.924Z" transform="translate(0.81)" fill="#ccc"/>
    <path id="Path_513-847" data-name="Path 513" d="M716.064,511.827H242.87a16.7,16.7,0,0,1-16.68-16.68V444.228a16.7,16.7,0,0,1,16.68-16.68H716.064a16.7,16.7,0,0,1,16.68,16.68v50.919a16.7,16.7,0,0,1-16.68,16.68ZM242.87,429.3a14.941,14.941,0,0,0-14.924,14.924v50.919a14.941,14.941,0,0,0,14.924,14.925H716.064a14.941,14.941,0,0,0,14.925-14.924V444.228A14.941,14.941,0,0,0,716.064,429.3Z" transform="translate(0.81)" fill="#ccc"/>
    <path id="Path_514-848" data-name="Path 514" d="M306.809,258.172a29.032,29.032,0,1,1,29.032-29.032,29.032,29.032,0,0,1-29.032,29.032Z" transform="translate(0.81)" fill="#000000"/>
    <path id="Path_515-849" data-name="Path 515" d="M673.2,252.843h-309.9a7.023,7.023,0,0,1,0-14.047H673.2a7.023,7.023,0,0,1,0,14.047Z" transform="translate(0.81)" fill="#ccc"/>
    <path id="Path_516-850" data-name="Path 516" d="M572.235,222.994H363.293a7.023,7.023,0,1,1,0-14.047H572.235a7.023,7.023,0,0,1,0,14.047Z" transform="translate(0.81)" fill="#ccc"/>
    <path id="Path_517-851" data-name="Path 517" d="M306.809,378.445a29.032,29.032,0,1,1,29.032-29.032,29.032,29.032,0,0,1-29.032,29.032Z" transform="translate(0.81)" fill="#e6e6e6"/>
    <path id="Path_518-852" data-name="Path 518" d="M673.2,373.117h-309.9a7.023,7.023,0,1,1,0-14.047H673.2a7.023,7.023,0,0,1,0,14.047Z" transform="translate(0.81)" fill="#e6e6e6"/>
    <path id="Path_519-853" data-name="Path 519" d="M572.235,343.268H363.293a7.023,7.023,0,1,1,0-14.047H572.235a7.023,7.023,0,0,1,0,14.047Z" transform="translate(0.81)" fill="#e6e6e6"/>
    <path id="Path_520-854" data-name="Path 520" d="M306.809,498.719a29.032,29.032,0,1,1,29.032-29.032,29.032,29.032,0,0,1-29.032,29.032Z" transform="translate(0.81)" fill="#e6e6e6"/>
    <path id="Path_521-855" data-name="Path 521" d="M673.2,493.391h-309.9a7.023,7.023,0,1,1,0-14.047H673.2a7.023,7.023,0,1,1,0,14.047Z" transform="translate(0.81)" fill="#e6e6e6"/>
    <path id="Path_522-856" data-name="Path 522" d="M572.235,463.542H363.293a7.023,7.023,0,1,1,0-14.047H572.235a7.023,7.023,0,0,1,0,14.047Z" transform="translate(0.81)" fill="#e6e6e6"/>
    <path id="Path_395-857" data-name="Path 395" d="M305.327,239.352a3.321,3.321,0,0,1-2-.664l-.036-.027-7.525-5.756a3.344,3.344,0,1,1,4.069-5.308l4.874,3.738,11.517-15.026a3.343,3.343,0,0,1,4.686-.619h0l-.071.1.073-.1a3.347,3.347,0,0,1,.618,4.687l-13.547,17.666a3.345,3.345,0,0,1-2.66,1.3Z" transform="translate(0.81)" fill="#fff"/>
  </g>
</svg>