<svg xmlns="http://www.w3.org/2000/svg" fill="#ffffff" viewBox="0 0 164.484 31.492" enable-background="new 0 0 164.484 31.492">
<g>
	<path d="M22.495,7.268h-7.787v23.619H7.787V7.268H0V0.605h22.495V7.268z"/>
	<path d="M37.726,15.746C37.726,6.835,44.777,0,53.472,0s15.746,6.835,15.746,15.746c0,8.912-7.051,15.746-15.746,15.746
		S37.726,24.658,37.726,15.746z M62.297,15.746c0-5.407-3.893-8.998-8.825-8.998s-8.825,3.59-8.825,8.998s3.893,8.998,8.825,8.998
		S62.297,21.153,62.297,15.746z"/>
	<path d="M115.165,15.746c0,8.565-6.359,15.141-14.708,15.141H88.344V0.605h12.112C108.805,0.605,115.165,7.181,115.165,15.746z
		 M108.502,15.746c0-5.191-3.288-8.479-8.046-8.479h-5.191v16.958h5.191C105.215,24.225,108.502,20.937,108.502,15.746z"/>
	<path d="M132.992,15.746C132.992,6.835,140.043,0,148.738,0s15.746,6.835,15.746,15.746c0,8.912-7.051,15.746-15.746,15.746
		S132.992,24.658,132.992,15.746z M157.563,15.746c0-5.407-3.893-8.998-8.825-8.998s-8.825,3.59-8.825,8.998
		s3.893,8.998,8.825,8.998S157.563,21.153,157.563,15.746z"/>
</g>
</svg>
